<?xml version="1.0" encoding="UTF-8"?>
<svg id="a" data-name="圖層 2" xmlns="http://www.w3.org/2000/svg" viewBox="0 0 654 625">
  <defs>
    <style>
      .b {
        fill: #1a1d21;
      }
    </style>
  </defs>
  <g>
    <path class="b" d="M127.27,494.83c1.4-1.4,3.13-1.29,4.96.65l11.1,11.96-6.68,9.05-13.04-14.22c-.97-1.08-1.62-1.08-2.48.43-1.72,3.13-6.36,8.3-14.23,15.63l-6.9-10.45c9.7-7.97,15.09-16.59,15.09-26.83v-4.96h11.64v5.6c0,7.33-2.69,14.12-3.66,16.16l.65.65,3.56-3.66ZM199.04,468.97c-12.61,1.51-27.16,2.69-42.57,3.56v51.62h-12.72v-51.08c-13.15.54-26.62.75-39.77.75l-2.16-10.78c32.01,0,63.04-.75,91.82-3.99l5.39,9.91ZM194.62,427.16v29.96h-88.37v-29.96h88.37ZM118.64,437.07v10.02h13.04v-10.02h-13.04ZM156.36,437.07h-13.15v10.02h13.15v-10.02ZM201.62,507.44l-6.68,9.05-13.04-14.22c-.97-1.08-1.62-1.08-2.48.43-1.72,3.13-6.36,8.3-14.23,15.63l-7.11-11.32c9.7-6.9,15.3-15.73,15.3-25.97v-4.96h11.64v5.6c0,7.33-2.7,14.12-3.66,16.16l.65.65,3.56-3.66c1.4-1.4,3.12-1.29,4.96.65l11.1,11.96ZM182.01,447.09v-10.02h-14.01v10.02h14.01Z"/>
    <path class="b" d="M217.78,476.19c2.37-9.05,3.34-19.18,3.77-31.25l9.27,1.08c-.21,12.18-1.4,24.14-3.56,33.51l-9.48-3.34ZM232.22,524.14v-99.14h12.61v99.14h-12.61ZM307.12,511.1v-17.89l9.92,3.45v14.22c0,9.16-3.13,12.18-10.89,12.18h-7.54c-8.51,0-11.42-3.02-11.42-12.18v-24.46h-6.36c-.86,15.84-7.33,28.23-27.7,38.58l-6.14-10.99c15.73-7.44,21.66-15.09,22.63-27.59h-7.97v-25.86c-.97,1.4-2.05,2.8-3.13,4.1l-.65-.65,1.29,5.5-7.76,2.8c-1.51-8.62-3.88-18.21-6.14-25.43l6.9-2.48c.65,1.83,1.29,3.77,1.94,5.93,3.56-4.85,6.25-10.24,8.08-16.06l6.25,2.26v-9.27h33.52c5.06,11.96,9.38,17.89,17.89,26.18l-7.87,10.99c-1.29-1.29-2.59-2.59-3.77-3.88v25.86h-9.38v22.74c0,1.51.43,1.94,1.83,1.94h6.47ZM272.74,439.01c-1.29,3.88-2.91,7.65-4.85,11.42h32.22c-2.59-3.66-4.53-7.44-5.93-11.42h-21.45ZM296.88,475.32v-13.79h-23.82v13.79h23.82Z"/>
    <path class="b" d="M436.54,444.18h-43.54v6.14h35.89v43.43h-35.89v6.36h43.54v11.32h-43.54v12.72h-12.72v-12.72h-41.81v-11.32h41.81v-6.36h-33.95v-43.43h33.95v-6.14h-41.81v-11.21h41.81v-7.97h12.72v7.97h43.54v11.21ZM358.41,460.13v7.22h21.88v-7.22h-21.88ZM358.41,483.94h21.88v-7.33h-21.88v7.33ZM416.82,460.13h-23.82v7.22h23.82v-7.22ZM416.82,483.94v-7.33h-23.82v7.33h23.82Z"/>
    <path class="b" d="M501.41,473.92v50.22h-12.29v-4.96h-18.54v4.96h-12.5v-50.22h43.32ZM470.59,507.44h18.54v-21.98h-18.54v21.98ZM541.39,427.16v39.66h-70.69v-39.66h70.69ZM484.06,455.06h43.75v-15.95h-43.75v15.95ZM554,473.92v50.22h-12.72v-4.96h-20.05v4.96h-12.29v-50.22h45.05ZM521.24,507.44h20.05v-21.98h-20.05v21.98Z"/>
  </g>
  <g>
    <path class="b" d="M269.13,134.01s0-.03.01-.04c2.78,5.95,8.82,10.07,15.83,10.07h61.62l-1.26,1.98-.12-.06-6.35,10.17-8.32,13c3.46,2.9,6.52,6.35,9.04,10.28l17,26.63,8.01-12.83,41.38-64.76c3.03-4.31,7.2-9.26,12.83-13.98,10.46-8.77,21.04-12.67,27.35-14.46h-220.76c6.31,1.79,16.89,5.69,27.35,14.46,8.28,6.95,13.4,14.38,16.39,19.55Z"/>
    <path class="b" d="M282.49,290.24h0s2.58,0,2.58,0c0,0,0-.02,0-.03,10.02-.26,19.41-4.6,26.06-11.87l.08-.15.24.13,11.01-17.64-24.72-38.71-3.69,5.92-.05-.08-8.24,13.35-11.04,17.68.06.03-1.15,1.8c-1.5,2.22-3.31,4.63-5.47,7.12l-8.88-13.91c-6.54-10.25-17.76-16.56-29.9-16.87,0,0,0-.01,0-.02h-52.39c6.31,1.79,16.89,5.69,27.35,14.46,6.13,5.14,10.52,10.54,13.61,15.1l2.11,3.31c.23.39.46.77.67,1.14,0-.02.01-.04.02-.06l12.25,19.19c-.11.03-.22.07-.33.1h.39s49.42,0,49.42,0Z"/>
    <path class="b" d="M424.61,169.9s0,.01,0,.02c-12.11.33-23.31,6.64-29.84,16.87l-30.14,47.2-32.03-50.16c-6.72-10.52-18.35-16.89-30.86-16.89h-29.35l67.52,105.75-27.68,43.36s-.01-.04-.02-.06c-.21.37-.44.75-.67,1.14l-2.11,3.31c-3.08,4.56-7.48,9.96-13.61,15.11-10.46,8.77-21.04,12.67-27.35,14.46h52.39s0-.01,0-.02c12.14-.32,23.35-6.62,29.9-16.87l86.05-134.77c3.03-4.31,7.2-9.26,12.83-13.98,10.46-8.77,21.04-12.67,27.35-14.46h-52.39Z"/>
  </g>
</svg>