<?xml version="1.0" encoding="UTF-8"?>
<svg id="a" data-name="圖層 2" xmlns="http://www.w3.org/2000/svg" viewBox="0 0 924 350">
  <defs>
    <style>
      .b {
        fill: #1aa6b7;
      }

      .c {
        fill: #1a1d21;
      }
    </style>
  </defs>
  <g>
    <path class="c" d="M397.27,194.83c1.4-1.4,3.13-1.29,4.96.65l11.1,11.96-6.68,9.05-13.04-14.22c-.97-1.08-1.62-1.08-2.48.43-1.72,3.13-6.36,8.3-14.23,15.63l-6.9-10.45c9.7-7.97,15.09-16.59,15.09-26.83v-4.96h11.64v5.6c0,7.33-2.69,14.12-3.66,16.16l.65.65,3.56-3.66ZM469.04,168.97c-12.61,1.51-27.16,2.69-42.57,3.56v51.62h-12.72v-51.08c-13.15.54-26.62.75-39.77.75l-2.16-10.78c32.01,0,63.04-.75,91.82-3.99l5.39,9.91ZM464.62,127.16v29.96h-88.37v-29.96h88.37ZM388.64,137.07v10.02h13.04v-10.02h-13.04ZM426.36,137.07h-13.15v10.02h13.15v-10.02ZM471.62,207.44l-6.68,9.05-13.04-14.22c-.97-1.08-1.62-1.08-2.48.43-1.72,3.13-6.36,8.3-14.23,15.63l-7.11-11.32c9.7-6.9,15.3-15.73,15.3-25.97v-4.96h11.64v5.6c0,7.33-2.7,14.12-3.66,16.16l.65.65,3.56-3.66c1.4-1.4,3.12-1.29,4.96.65l11.1,11.96ZM452.01,147.09v-10.02h-14.01v10.02h14.01Z"/>
    <path class="c" d="M487.78,176.19c2.37-9.05,3.34-19.18,3.77-31.25l9.27,1.08c-.21,12.18-1.4,24.14-3.56,33.51l-9.48-3.34ZM502.22,224.14v-99.14h12.61v99.14h-12.61ZM577.12,211.1v-17.89l9.92,3.45v14.22c0,9.16-3.13,12.18-10.89,12.18h-7.54c-8.51,0-11.42-3.02-11.42-12.18v-24.46h-6.36c-.86,15.84-7.33,28.23-27.7,38.58l-6.14-10.99c15.73-7.44,21.66-15.09,22.63-27.59h-7.97v-25.86c-.97,1.4-2.05,2.8-3.13,4.1l-.65-.65,1.29,5.5-7.76,2.8c-1.51-8.62-3.88-18.21-6.14-25.43l6.9-2.48c.65,1.83,1.29,3.77,1.94,5.93,3.56-4.85,6.25-10.24,8.08-16.06l6.25,2.26v-9.27h33.52c5.06,11.96,9.38,17.89,17.89,26.18l-7.87,10.99c-1.29-1.29-2.59-2.59-3.77-3.88v25.86h-9.38v22.74c0,1.51.43,1.94,1.83,1.94h6.47ZM542.74,139.01c-1.29,3.88-2.91,7.65-4.85,11.42h32.22c-2.59-3.66-4.53-7.44-5.93-11.42h-21.45ZM566.88,175.32v-13.79h-23.82v13.79h23.82Z"/>
    <path class="c" d="M706.54,144.18h-43.54v6.14h35.89v43.43h-35.89v6.36h43.54v11.32h-43.54v12.72h-12.72v-12.72h-41.81v-11.32h41.81v-6.36h-33.95v-43.43h33.95v-6.14h-41.81v-11.21h41.81v-7.97h12.72v7.97h43.54v11.21ZM628.41,160.13v7.22h21.88v-7.22h-21.88ZM628.41,183.94h21.88v-7.33h-21.88v7.33ZM686.82,160.13h-23.82v7.22h23.82v-7.22ZM686.82,183.94v-7.33h-23.82v7.33h23.82Z"/>
    <path class="c" d="M771.41,173.92v50.22h-12.29v-4.96h-18.54v4.96h-12.5v-50.22h43.32ZM740.59,207.44h18.54v-21.98h-18.54v21.98ZM811.39,127.16v39.66h-70.69v-39.66h70.69ZM754.06,155.06h43.75v-15.95h-43.75v15.95ZM824,173.92v50.22h-12.72v-4.96h-20.05v4.96h-12.29v-50.22h45.05ZM791.24,207.44h20.05v-21.98h-20.05v21.98Z"/>
  </g>
  <g>
    <path class="b" d="M155.28,120.41s0-.02,0-.03c1.67,3.57,5.29,6.04,9.5,6.04h36.97l-.76,1.19-.07-.04-3.81,6.1-4.99,7.8c2.08,1.74,3.91,3.81,5.42,6.17l10.2,15.98,4.8-7.7,24.83-38.86c1.82-2.59,4.32-5.55,7.7-8.39,6.27-5.26,12.62-7.6,16.41-8.68h-132.46c3.79,1.07,10.14,3.41,16.41,8.68,4.97,4.17,8.04,8.63,9.84,11.73Z"/>
    <path class="b" d="M163.3,214.15h0s1.55,0,1.55,0c0,0,0,0,0-.02,6.01-.16,11.65-2.76,15.64-7.12l.05-.09.14.08,6.61-10.59-14.83-23.23-2.22,3.55-.03-.05-4.94,8.01-6.62,10.61.03.02-.69,1.08c-.9,1.33-1.98,2.78-3.28,4.27l-5.33-8.35c-3.93-6.15-10.66-9.93-17.94-10.12,0,0,0,0,0,0h-31.43c3.79,1.07,10.14,3.41,16.41,8.68,3.68,3.09,6.31,6.33,8.16,9.06l1.27,1.99c.14.23.28.46.4.68,0-.01,0-.02,0-.04l7.35,11.52c-.06.02-.13.04-.2.06h.23s29.65,0,29.65,0Z"/>
    <path class="b" d="M248.57,141.94s0,0,0,0c-7.27.2-13.98,3.98-17.9,10.12l-18.08,28.32-19.22-30.09c-4.03-6.31-11.01-10.13-18.51-10.13h-17.61l40.51,63.45-16.61,26.01s0-.02,0-.04c-.13.22-.26.45-.4.69l-1.27,1.98c-1.85,2.74-4.49,5.98-8.16,9.06-6.27,5.26-12.62,7.6-16.41,8.68h31.43s0,0,0,0c7.28-.19,14.01-3.97,17.94-10.12l51.63-80.86c1.82-2.59,4.32-5.55,7.7-8.39,6.27-5.26,12.62-7.6,16.41-8.68h-31.43Z"/>
  </g>
</svg>