<?xml version="1.0" encoding="UTF-8"?>
<svg id="a" data-name="圖層 2" xmlns="http://www.w3.org/2000/svg" viewBox="0 0 375 375">
  <defs>
    <style>
      .b {
        fill: #1aa6b7;
      }
    </style>
  </defs>
  <path class="b" d="M129.63,96.51s0-.03.01-.04c2.78,5.95,8.82,10.07,15.83,10.07h61.62l-1.26,1.98-.12-.06-6.35,10.17-8.32,13c3.46,2.9,6.52,6.35,9.04,10.28l17,26.63,8.01-12.83,41.38-64.76c3.03-4.31,7.2-9.26,12.83-13.98,10.46-8.77,21.04-12.67,27.35-14.46H85.89c6.31,1.79,16.89,5.69,27.35,14.46,8.28,6.95,13.4,14.38,16.39,19.55Z"/>
  <path class="b" d="M142.99,252.74h0s2.58,0,2.58,0c0,0,0-.02,0-.03,10.02-.26,19.41-4.6,26.06-11.87l.08-.15.24.13,11.01-17.64-24.72-38.71-3.69,5.92-.05-.08-8.24,13.35-11.04,17.68.06.03-1.15,1.8c-1.5,2.22-3.31,4.63-5.47,7.12l-8.88-13.91c-6.54-10.25-17.76-16.56-29.9-16.87,0,0,0-.01,0-.02h-52.39c6.31,1.79,16.89,5.69,27.35,14.46,6.13,5.14,10.52,10.54,13.61,15.1l2.11,3.31c.23.39.46.77.67,1.14,0-.02.01-.04.02-.06l12.25,19.19c-.11.03-.22.07-.33.1h.39s49.42,0,49.42,0Z"/>
  <path class="b" d="M285.11,132.4s0,.01,0,.02c-12.11.33-23.31,6.64-29.84,16.87l-30.14,47.2-32.03-50.16c-6.72-10.52-18.35-16.89-30.86-16.89h-29.35l67.52,105.75-27.68,43.36s-.01-.04-.02-.06c-.21.37-.44.75-.67,1.14l-2.11,3.31c-3.08,4.56-7.48,9.96-13.61,15.11-10.46,8.77-21.04,12.67-27.35,14.46h52.39s0-.01,0-.02c12.14-.32,23.35-6.62,29.9-16.87l86.05-134.77c3.03-4.31,7.2-9.26,12.83-13.98,10.46-8.77,21.04-12.67,27.35-14.46h-52.39Z"/>
</svg>